<?xml version="1.0" standalone="no"?>
<!DOCTYPE svg PUBLIC "-//W3C//DTD SVG 20010904//EN"
 "http://www.w3.org/TR/2001/REC-SVG-20010904/DTD/svg10.dtd">
<svg version="1.0" xmlns="http://www.w3.org/2000/svg"
 width="248.000000pt" height="248.000000pt" viewBox="0 0 248.000000 248.000000"
 preserveAspectRatio="xMidYMid meet">
<metadata>
Created by potrace 1.11, written by Peter Selinger 2001-2013
</metadata>
<g transform="translate(0.000000,248.000000) scale(0.100000,-0.100000)"
fill="#000000" stroke="none">
<path d="M90 1245 l0 -985 1145 0 1145 0 0 985 0 985 -1145 0 -1145 0 0 -985z
m2250 944 c3 -4 5 -432 5 -950 l-1 -943 -1103 -1 c-606 0 -1106 2 -1110 5 -8
7 -9 1883 0 1890 11 8 2203 6 2209 -1z"/>
<path d="M1389 1800 c-100 -27 -159 -106 -159 -212 1 -106 75 -192 175 -204
60 -7 122 8 154 37 l22 21 -21 23 -22 24 -40 -21 c-89 -47 -190 11 -197 113
-8 113 100 182 205 132 36 -17 36 -17 55 6 10 13 16 27 13 32 -19 31 -135 62
-185 49z"/>
<path d="M660 1779 c-42 -100 -149 -383 -145 -389 4 -6 28 -6 68 -1 4 1 7 7 7
15 0 23 16 28 86 30 60 1 66 0 77 -24 11 -23 28 -28 76 -21 7 1 -142 397 -154
410 -2 2 -9 -7 -15 -20z m52 -268 c2 -12 -7 -16 -39 -17 -24 -1 -43 2 -43 6 0
3 10 35 22 70 l21 64 19 -53 c10 -30 19 -61 20 -70z"/>
<path d="M887 1792 c-11 -19 2 -75 26 -111 33 -50 34 -61 3 -55 -14 2 -26 -1
-28 -8 -3 -7 -4 -62 -4 -123 l1 -109 33 -1 c22 -1 32 4 33 15 1 8 2 46 3 85 1
62 3 70 20 70 13 0 36 -27 72 -85 48 -77 56 -84 86 -86 18 0 36 1 40 3 4 2
-18 42 -47 90 l-55 87 31 14 c88 43 72 179 -24 209 -38 12 -184 16 -190 5z
m190 -84 c27 -22 3 -78 -32 -78 -15 0 -65 67 -65 87 0 15 76 8 97 -9z"/>
<path d="M1653 1593 l2 -206 33 -2 c17 -1 32 3 33 9 0 6 1 45 2 86 l2 75 80 0
80 0 5 -84 c5 -85 5 -85 33 -86 15 -1 31 3 34 8 3 6 7 97 7 203 1 153 -2 195
-12 199 -21 8 -62 6 -61 -2 1 -5 1 -43 0 -85 l-1 -78 -84 0 -84 0 0 68 c0 107
2 102 -36 102 l-35 0 2 -207z"/>
<path d="M510 1285 l0 -35 728 0 727 0 -1 32 -1 33 -726 3 -727 2 0 -35z"/>
<path d="M528 1183 c-14 -4 -17 -21 -20 -111 -2 -59 -1 -134 2 -167 4 -53 8
-60 28 -63 25 -4 25 -4 28 93 1 39 2 79 3 89 0 11 23 -26 51 -82 44 -90 52
-102 75 -102 23 0 32 11 75 103 l49 102 1 -103 0 -103 28 3 27 3 2 166 c2 150
1 167 -15 171 -36 9 -49 -6 -102 -123 -30 -67 -58 -123 -62 -125 -4 -2 -34 51
-67 120 -61 123 -71 136 -103 129z"/>
<path d="M993 1182 l-41 -3 1 -169 0 -168 114 0 113 0 0 29 0 29 -86 0 -85 0
3 43 3 42 68 -1 67 -1 0 29 0 28 -70 0 -70 0 0 39 c0 22 5 41 13 43 6 2 45 4
85 3 l72 -2 0 29 c0 15 -3 28 -7 29 -33 3 -146 3 -180 1z"/>
<path d="M1258 1182 c-10 -2 -18 -13 -19 -25 0 -21 0 -262 1 -301 0 -17 7 -18
70 -13 125 10 183 64 183 173 0 62 -25 110 -71 137 -32 19 -130 36 -164 29z
m123 -73 c43 -17 64 -76 47 -137 -10 -38 -58 -72 -103 -72 l-30 0 1 112 c1 62
2 114 3 115 2 4 57 -8 82 -18z"/>
<path d="M1782 1083 c-22 -60 -53 -138 -66 -175 l-26 -68 31 0 c22 0 32 5 36
20 5 17 14 20 68 20 54 0 65 -3 70 -19 4 -14 15 -19 35 -19 17 1 30 3 30 6 0
7 -131 342 -134 342 -1 0 -21 -48 -44 -107z m78 -139 c0 -9 -12 -14 -36 -14
-39 0 -38 -2 -11 77 l11 32 18 -41 c10 -22 18 -46 18 -54z"/>
<path d="M1577 1023 c0 -87 2 -164 2 -170 1 -7 12 -13 25 -13 13 0 26 6 28 13
2 6 4 82 3 167 l0 155 -30 3 -30 3 2 -158z"/>
<path d="M531 764 c-28 -20 -29 -79 -2 -94 24 -12 61 -13 61 -2 0 5 -9 8 -21
8 -29 -1 -50 32 -38 62 5 15 17 22 34 22 14 0 25 4 25 8 0 14 -37 11 -59 -4z"/>
<path d="M697 762 c-37 -41 -9 -106 42 -100 55 6 61 98 7 112 -30 8 -31 8 -49
-12z m64 -24 c12 -23 4 -54 -18 -62 -34 -13 -60 39 -37 73 16 23 39 18 55 -11z"/>
<path d="M885 766 c-22 -16 -14 -46 16 -53 27 -7 20 -38 -9 -37 -12 0 -22 -3
-22 -8 0 -9 31 -11 54 -2 25 9 19 43 -9 56 -41 19 -31 44 15 39 13 -2 13 -1 0
8 -20 14 -23 14 -45 -3z"/>
<path d="M1013 768 c-2 -5 4 -8 15 -8 15 0 18 -7 17 -45 -1 -25 2 -48 7 -51 4
-3 8 18 8 45 0 39 4 51 15 51 8 0 15 4 15 8 0 11 -70 10 -77 0z"/>
<path d="M1192 721 c-11 -34 -17 -61 -12 -61 5 0 11 8 14 18 8 24 44 25 51 1
4 -10 10 -19 15 -19 11 0 -18 90 -35 108 -10 11 -16 3 -33 -47z m34 -8 c-11
-11 -19 6 -11 24 8 17 8 17 12 0 3 -10 2 -21 -1 -24z"/>
<path d="M1430 720 c0 -35 4 -59 9 -55 6 3 8 14 6 25 -6 31 24 24 36 -7 6 -16
13 -23 16 -16 2 7 0 20 -5 29 -7 12 -6 24 1 36 14 21 3 34 -35 43 l-28 7 0
-62z m48 21 c-4 -20 -33 -21 -34 -1 -1 23 5 30 22 23 8 -3 14 -13 12 -22z"/>
<path d="M1733 770 c-27 -11 -39 -53 -24 -86 8 -18 19 -24 41 -24 16 0 30 4
30 8 0 5 -9 8 -21 8 -29 -1 -50 32 -38 62 5 15 17 22 34 22 14 0 25 5 25 10 0
12 -17 12 -47 0z"/>
<path d="M1896 749 c-8 -19 -18 -48 -21 -65 l-7 -29 19 23 c20 24 53 22 53 -4
0 -8 5 -14 10 -14 13 0 13 -2 -6 56 -23 68 -31 73 -48 33z m22 -38 c-15 -5
-19 4 -11 24 6 18 7 18 13 -1 4 -10 3 -21 -2 -23z"/>
<path d="M1590 714 c0 -32 4 -53 9 -49 12 7 12 105 0 105 -5 0 -9 -25 -9 -56z"/>
</g>
</svg>
